HIERARCHY
ROOT Hips
{
  OFFSET -31.5692 30.0904 122.763
  CHANNELS 6 Xposition Yposition Zposition Zrotation Xrotation Yrotation
  JOINT LeftUpLeg
  {
    OFFSET 8.64259 1.95398 -2.38835
    CHANNELS 3 Zrotation Xrotation Yrotation
    JOINT LeftLeg
    {
      OFFSET 43.7702 0 0
      CHANNELS 3 Zrotation Xrotation Yrotation
      JOINT LeftFoot
      {
        OFFSET 40.6238 0 0
        CHANNELS 3 Zrotation Xrotation Yrotation
        JOINT LeftToeBase
        {
          OFFSET 12.7242 0 0
          CHANNELS 3 Zrotation Xrotation Yrotation
          End Site
          {
            OFFSET 0 0 0
          }
        }
      }
    }
  }
  JOINT RightUpLeg
  {
    OFFSET -8.2249 1.95398 -2.59336
    CHANNELS 3 Zrotation Xrotation Yrotation
    JOINT RightLeg
    {
      OFFSET 43.5653 0 0
      CHANNELS 3 Zrotation Xrotation Yrotation
      JOINT RightFoot
      {
        OFFSET 40.6238 0 0
        CHANNELS 3 Zrotation Xrotation Yrotation
        JOINT RightToeBase
        {
          OFFSET 12.7242 0 0
          CHANNELS 3 Zrotation Xrotation Yrotation
          End Site
          {
            OFFSET 0 0 0
          }
        }
      }
    }
  }
  JOINT Spine
  {
    OFFSET 0.165834 0.87714 6.61349
    CHANNELS 3 Zrotation Xrotation Yrotation
    JOINT Spine1
    {
      OFFSET 7.38963 1.71661e-005 0
      CHANNELS 3 Zrotation Xrotation Yrotation
      JOINT Spine2
      {
        OFFSET 11.9445 1.14441e-005 0
        CHANNELS 3 Zrotation Xrotation Yrotation
        JOINT Spine3
        {
          OFFSET 14.7254 4.19617e-005 0
          CHANNELS 3 Zrotation Xrotation Yrotation
          JOINT Spine4
          {
            OFFSET 10.9679 0 0
            CHANNELS 3 Zrotation Xrotation Yrotation
            JOINT RightShoulder
            {
              OFFSET 2.46616 -1.6653 3.69651
              CHANNELS 3 Zrotation Xrotation Yrotation
              JOINT RightArm
              {
                OFFSET 13.0012 0 0
                CHANNELS 3 Zrotation Xrotation Yrotation
                JOINT RightForeArm
                {
                  OFFSET 28.7848 1.62311e-005 0
                  CHANNELS 3 Zrotation Xrotation Yrotation
                  JOINT RightHand
                  {
                    OFFSET 26.5688 1.62095e-005 0
                    CHANNELS 3 Zrotation Xrotation Yrotation
                    End Site
                    {
                      OFFSET 0 0 0
                    }
                  }
                }
              }
            }
            JOINT LeftShoulder
            {
              OFFSET 2.38034 -1.29275 -3.7523
              CHANNELS 3 Zrotation Xrotation Yrotation
              JOINT LeftArm
              {
                OFFSET 16.3182 6.07031e-005 0
                CHANNELS 3 Zrotation Xrotation Yrotation
                JOINT LeftForeArm
                {
                  OFFSET 27.0901 0 0
                  CHANNELS 3 Zrotation Xrotation Yrotation
                  JOINT LeftHand
                  {
                    OFFSET 24.5451 1.51738e-005 0
                    CHANNELS 3 Zrotation Xrotation Yrotation
                    End Site
                    {
                      OFFSET 0 0 0
                    }
                  }
                }
              }
            }
            JOINT Neck
            {
              OFFSET 5.0226 -0.0266342 0
              CHANNELS 3 Zrotation Xrotation Yrotation
              JOINT Head
              {
                OFFSET 6.69364 2.86102e-005 0
                CHANNELS 3 Zrotation Xrotation Yrotation
                End Site
                {
                  OFFSET 0 0 0
                }
              }
            }
          }
        }
      }
    }
  }
}
MOTION
Frames:	13
Frame Time:	0.0416667
13.0052 96.8138 -3.48703 -98.6416 -41.0769 -102.815 179.884 18.0314 82.5309 -10.1324 22.5445 -0.127016 59.7078 0.479677 -4.22873 24.6469 -6.30923 10.9148 170.481 -15.6906 86.373 -30.4571 -46.7735 -7.20606 76.5776 -13.97 -5.68101 21.298 1.64637 6.75827 1.92672 8.26875 -89.6866 10.3357 3.98183 0.276996 -1.32918 3.99014 0.101189 -23.9082 3.71426 1.46253 -3.89559 3.71423 1.46251 87.6208 -28.1845 -112.278 29.7439 -5.29486 -11.5168 -2.81333 -31.383 -25.9163 -27.1961 0.892739 -15.0477 -86.0793 -56.9576 85.5798 -26.5257 3.03449 13.3146 -1.92705 2.45772 -1.41241 1.19634 -0.285864 -15.0366 0.29852 -3.17642 1.37059 -1.85121 -3.44807 -7.5287 
5.25902 96.8691 3.79878 -99.3748 -34.4461 -104.932 -179.634 17.3768 80.2929 -22.9844 21.4596 0.112303 59.1437 -0.599886 -4.15184 23.0114 -5.78888 7.35473 169.917 -17.7819 83.275 -42.8241 -48.7468 -16.0219 68.6639 -6.25309 -4.28098 27.7135 -1.73966 10.8679 2.17326 8.26852 -89.5354 10.3318 4.54229 0.529009 -1.33126 4.56115 0.328154 -23.9216 4.17295 1.87196 -3.90891 4.17296 1.87197 88.86 -27.3969 -110.133 36.1607 -6.07316 -8.68208 4.84191 -31.8776 -13.6774 -24.7186 -0.408444 -8.79164 -86.5483 -59.5637 85.2767 -23.7856 2.65471 10.0536 -0.7775 -0.467292 -2.59711 1.96647 -0.476706 -15.571 1.27455 -3.97849 1.61791 -3.31248 -4.19225 -8.80957 
-2.02246 97.1683 9.43185 -99.7153 -27.983 -106.178 -177.77 12.5293 78.9935 -29.092 17.6031 -1.04218 68.2661 4.81731 -2.22563 16.8075 -8.80692 6.05877 170.037 -10.2572 78.9332 -57.4261 -45.3778 -15.2962 56.3443 2.60807 1.43666 32.6761 -2.17976 2.5675 1.72967 8.24424 -89.1538 10.3635 3.83318 1.34716 -1.30231 3.88874 1.17694 -23.8666 3.25107 2.43772 -3.85396 3.25107 2.43773 87.6321 -29.3254 -111.724 38.163 -6.6568 -6.3345 10.4528 -33.0799 -6.11558 -19.7483 -0.846903 -6.68972 -86.817 -57.0566 84.5669 -22.1167 4.8017 4.49297 -2.16499 -0.273514 -1.64526 1.68732 -0.419844 -15.2111 1.70762 -3.6562 -1.68044 -3.12714 -3.37494 -6.87933 
-8.34825 98.0193 12.8707 -98.7272 -20.0568 -103.666 -176.3 5.99204 80.4256 -28.1281 11.7099 -1.4628 73.1786 7.7438 -1.15807 16.2374 -8.57057 4.89266 174.827 2.13902 81.0184 -65.9042 -29.4822 -10.8626 62.481 -1.12278 0.212426 27.6799 -0.144251 3.08777 1.32091 8.23114 -89.2136 10.3937 2.9916 1.29937 -1.27429 3.04588 1.16635 -23.8244 2.46279 2.13867 -3.81177 2.46281 2.13867 87.9541 -29.7414 -110.902 37.7747 -6.75206 -2.64556 9.42302 -35.0807 -8.92272 -21.1468 -0.576592 -8.93043 -87.4532 -55.2661 83.4046 -17.6063 7.05153 -5.47293 -3.53179 -0.643068 0.0481845 1.66283 -0.31056 -12.7344 2.19563 -2.66406 -3.56083 -3.03262 -2.09198 -5.37183 
-14.4269 99.121 14.7904 -97.607 -12.8906 -98.4358 -174.332 -0.788912 84.5789 -24.0919 7.338 -1.23928 75.1943 8.18486 -2.97063 20.1278 -8.76522 10.1722 178.118 12.747 87.3129 -60.5315 -16.9311 -6.96923 68.7546 -5.31052 -2.83796 26.0539 0.699535 2.52906 0.780406 8.17403 -89.605 10.524 1.73599 0.631422 -1.14588 1.76209 0.554387 -23.6869 1.46596 1.12404 -3.67428 1.46596 1.12404 88.7896 -29.3632 -109.414 36.3424 -6.93838 -0.629187 5.58362 -34.0909 -15.3702 -22.6022 -0.122572 -11.3662 -87.6385 -53.0587 82.788 -13.3821 4.54264 -10.9533 -2.72755 -1.62283 0.0857602 2.59285 -0.49268 -14.0852 -0.0998037 -1.01658 -4.61462 -1.83864 -0.416801 -3.67589 
-20.6084 99.0682 16.1385 -96.1631 -7.194 -93.8773 -172.288 -5.39111 88.0124 -21.305 3.29683 -1.07754 78.018 8.96515 -3.74588 21.5906 -8.84308 12.2659 179.302 20.4623 93.2311 -43.8316 -14.9699 -3.55289 65.9525 -3.524 -1.41684 25.5701 0.78406 3.07006 0.294424 8.11387 -89.8761 10.6457 0.643426 0.187935 -1.02513 0.651094 0.159423 -23.5612 0.557181 0.372629 -3.54855 0.557225 0.372634 88.6276 -31.1553 -108.989 34.214 -5.29995 0.395831 1.99084 -34.633 -19.258 -24.5802 -0.0503621 -11.4908 -87.2811 -49.5457 82.7266 -9.79784 0.0506757 -13.9374 -1.17487 -2.13015 -1.32493 6.10503 -1.17436 -18.6812 -0.163718 0.367495 -7.23167 -1.52383 1.35521 -0.427299 
-27.4899 97.9686 17.1806 -94.9315 -5.24459 -91.41 -170.582 -10.3837 90.4789 -18.3989 1.29642 -1.02551 82.2653 10.8297 -5.08703 20.7408 -9.92964 13.3863 179.868 22.4529 95.7841 -21.1474 -14.7774 -0.969034 62.5272 -2.13349 -1.34219 22.9061 1.58989 4.48265 -0.0892722 8.06439 -90.039 10.7456 -0.195658 -0.0591369 -0.925354 -0.198072 -0.0504765 -23.4606 -0.168864 -0.115209 -3.4479 -0.16881 -0.115202 89.1587 -32.408 -107.476 35.1359 -3.41228 1.43857 2.72357 -26.8876 -17.275 -27.2558 0.313487 -11.039 -87.3778 -46.6165 82.0623 -7.68688 -2.84128 -19.3565 -0.5436 -4.74303 -3.322 8.713 -1.64224 -19.7463 0.519863 0.0176712 -8.39922 -1.64403 1.23556 0.50631 
-35.9583 96.4901 18.1975 -94.8846 -7.55091 -89.8289 -168.538 -16.5181 93.7666 -15.6733 4.0846 -0.144588 83.2549 13.0817 -2.71189 23.9736 -6.72437 10.8156 -179.811 21.9529 95.9324 -11.1776 -13.1072 -0.803734 63.1743 -2.80243 -1.8742 20.3199 2.56813 4.96255 -0.489709 8.07297 -90.2568 10.7251 -1.09353 -0.410891 -0.945497 -1.11053 -0.362371 -23.4828 -0.9195 -0.720565 -3.47017 -0.919475 -0.72056 89.0642 -33.6919 -107.177 35.5363 -2.75627 3.59265 4.6691 -28.0602 -13.4059 -23.719 0.135075 -11.2965 -88.1877 -47.1087 80.8917 -8.17511 -4.37225 -26.8349 0.410861 -4.43371 -3.75671 9.61842 -1.92985 -21.3365 1.89154 -1.11778 -8.62773 -2.79408 0.247228 0.0409512 
-46.4899 95.9937 18.8252 -95.8025 -9.78251 -87.1329 -164.189 -20.3109 100.608 -17.8828 8.69712 0.863771 77.8365 10.9687 -1.07409 36.1213 -1.01076 16.7768 178.787 22.3085 97.8064 -20.2463 -11.2147 0.69471 60.3847 0.496665 -1.09614 23.6838 1.78477 2.37969 -0.62758 8.07073 -90.5863 10.7265 -1.52 -1.02558 -0.943849 -1.56363 -0.957697 -23.4804 -1.14155 -1.43498 -3.46774 -1.14153 -1.43498 89.1859 -34.0789 -106.808 37.0453 -2.3055 5.46863 7.99539 -30.7173 -7.68863 -16.8311 -0.452893 -9.27305 -88.8375 -48.3952 80.149 -12.3488 -2.95898 -30.1988 1.61554 6.82478 -4.12623 8.18266 -1.98405 -25.8428 2.0981 -2.08686 -9.34377 -3.66015 -0.58754 0.279731 
-57.1119 96.3127 19.4398 -97.1466 -9.19712 -85.6852 -163.966 -16.1637 103.343 -34.1704 11.0757 2.87051 66.8787 4.26711 1.58034 30.8015 -4.55667 16.6194 177.487 20.1283 99.9454 -30.4738 -11.3727 1.80142 63.8955 -0.967885 -1.253 18.0769 4.07614 3.21638 -0.600584 8.00215 -90.7008 10.86 -1.51964 -1.25157 -0.810599 -1.57325 -1.18347 -23.345 -1.07326 -1.65037 -3.33232 -1.0733 -1.65038 89.6841 -33.2895 -106.156 39.1073 -1.70067 6.67845 8.15894 -28.5082 -6.39406 -15.8255 -0.330277 -10.1446 -88.9891 -49.9618 80.2332 -15.7545 0.259872 -26.4295 1.58965 22.7631 -2.32461 6.501 -1.6885 -29.5519 0.602719 -2.10346 -7.87479 -3.60685 -0.939471 -1.23964 
-65.4812 97.6773 19.8775 -98.915 -9.29999 -83.9604 -167.634 -1.29707 104.444 -59.3572 14.3883 5.12562 56.9418 -3.08466 0.858854 6.1276 -12.2358 0.908477 178.45 12.3247 102.729 -29.672 -11.1239 1.70336 66.559 -3.62293 -3.69864 20.0296 3.23903 3.07899 -0.451761 8.27919 -90.9049 10.3022 -1.31382 -1.68331 -1.36911 -1.38662 -1.62388 -23.8977 -0.747312 -2.00024 -3.88507 -0.747311 -2.00025 89.403 -32.96 -106.807 37.7878 -2.20991 4.23948 6.38127 -27.8995 -9.62647 -19.0991 -0.171849 -10.3281 -88.9408 -51.0975 80.527 -19.4702 3.46074 -22.867 -0.532887 24.8742 0.165405 6.33647 -1.0954 -24.8762 1.69873 -2.25532 -6.43005 -3.08273 -1.23664 -0.815477 
-72.1072 98.8323 21.0661 -98.3293 -8.54812 -85.9807 -171.897 11.9343 98.2591 -67.0339 12.1782 4.34831 66.38 3.3323 2.42704 10.2038 -11.3189 3.52744 178.298 7.32518 101.088 -28.4325 -12.2476 0.292459 69.484 -5.24006 -3.55378 21.0928 2.81132 2.89835 -0.0943391 8.27441 -90.6838 10.323 -0.500754 -1.31502 -1.3486 -0.558159 -1.29172 -23.878 -0.0824863 -1.40471 -3.86532 -0.0824705 -1.40471 89.1151 -32.1761 -107.649 35.3661 -2.92804 -0.126605 4.35315 -28.5908 -13.2863 -22.9288 -0.205263 -9.4708 -88.9384 -51.5744 80.6229 -21.9987 7.47493 -17.6198 -2.83279 19.1468 -0.00446235 3.9448 -0.295362 -20.4862 -0.507009 -2.76405 -5.63995 -1.94554 -1.99662 -1.40317 
-78.9268 99.4358 22.785 -97.6369 -3.88313 -88.2214 -172.486 19.0962 91.976 -52.0356 0.99166 0.968258 70.8572 6.38019 0.573992 9.69417 -12.2943 4.69807 177.607 2.67233 97.7862 -28.4253 -17.7471 -2.09079 72.3406 -7.10209 -4.17181 23.3091 2.05321 2.01193 0.499247 8.30391 -90.2824 10.2693 0.865661 -0.634889 -1.40149 0.83689 -0.672382 -23.9386 1.01646 -0.345353 -3.92595 1.01644 -0.345361 88.4721 -31.5219 -109.138 32.0229 -3.33014 -6.42976 2.84487 -28.9378 -15.616 -23.9732 -0.0793967 -10.0938 -88.2782 -52.4414 81.7492 -21.8805 9.18545 -7.14742 -4.21114 18.6414 -0.00488726 0.87159 0.276313 -18.3134 -2.015 -2.70077 -4.72801 -0.824751 -2.11479 -0.655627 
